<svg xmlns="http://www.w3.org/2000/svg" width="1590" height="369.186"><path fill="#FFF" d="M225.592 109.941c0 22.497-10.902 49.598-25.274 64.426-2.973 3.067-2.973 6.649 0 9.202 16.355 14.322 29.236 43.463 29.236 69.544 0 66.983-40.632 110.447-101.589 110.447H11.006c-5.451 0-9.912-4.602-9.912-10.228V15.854c0-5.626 4.461-10.228 9.912-10.228h116.959c55.504 0 97.627 46.535 97.627 104.315m-100.108 33.238c17.346 0 32.707-15.34 32.707-33.238s-15.361-32.727-32.707-32.727h-51.54c-2.975 0-4.956 2.045-4.956 5.115v55.735c0 3.065 1.981 5.115 4.956 5.115h51.54zM73.945 214.76c-2.975 0-4.956 2.045-4.956 5.116v66.983c0 3.068 1.981 5.112 4.956 5.112h51.54c21.312 0 34.692-18.402 34.692-38.858 0-19.941-13.877-38.353-34.692-38.353h-51.54zM526.022 113.009c4.952 42.947 4.952 100.22 0 143.174-6.939 61.357-49.557 113.003-117.949 113.003-68.389 0-111.007-51.646-117.946-113.003-4.956-42.954-4.956-100.227 0-143.174C297.066 51.647 339.684 0 408.073 0c68.393 0 111.01 51.647 117.949 113.009m-69.879 143.174c4.957-42.954 4.957-100.227 0-143.174-2.475-22.503-17.839-40.907-48.07-40.907s-45.59 18.404-48.071 40.907c-4.956 42.947-4.956 100.22 0 143.174 2.481 22.496 17.84 40.902 48.071 40.902 30.231 0 45.595-18.406 48.07-40.902M833.338 256.183c0 61.867-49.56 113.003-117.948 113.003-67.399 0-116.956-51.136-116.956-113.003V15.853c0-5.626 4.458-10.227 9.91-10.227h50.053c5.452 0 9.911 4.601 9.911 10.227v240.33c0 22.496 17.844 40.902 47.082 40.902 30.23 0 48.07-18.406 48.07-40.902V15.853c0-5.626 4.461-10.227 9.913-10.227h50.052c5.454 0 9.913 4.601 9.913 10.227v240.33zM1026.869 5.626c60.956 0 103.572 51.647 110.512 113.003 4.957 42.955 4.957 88.975 0 131.929-6.939 61.361-49.556 113.003-110.512 113.003H922.796c-5.452 0-9.909-4.603-9.909-10.229V15.854c0-5.626 4.457-10.228 9.909-10.228h104.073zm-39.646 71.588c-2.975 0-4.955 2.045-4.955 5.115v204.53c0 3.068 1.98 5.112 4.955 5.112h39.646c22.793 0 38.157-18.916 40.633-41.414 4.957-42.954 4.957-88.974 0-131.929-2.476-22.497-17.84-41.415-40.633-41.415h-39.646zM1282.501 353.333c0 5.629-4.464 10.228-9.915 10.228h-49.559c-5.446 0-9.907-4.599-9.907-10.228V15.854c0-5.626 4.461-10.229 9.907-10.229h49.559c5.451 0 9.915 4.602 9.915 10.229v337.479zM1519.238 363.56c-8.423 0-11.893-4.599-13.381-8.695l-67.399-179.474c-.991-3.068-4.459-2.045-4.459 1.019v176.924c0 5.627-4.462 10.226-9.913 10.226h-49.556c-5.45 0-9.908-4.599-9.908-10.226V15.853c0-5.626 4.458-10.226 9.908-10.226h58.976c7.431 0 10.901 4.6 12.388 9.206l67.892 194.304c.995 3.068 4.462 2.05 4.462-1.019V15.853c0-5.626 4.46-10.226 9.912-10.226h49.558c5.452 0 9.911 4.6 9.911 10.226v337.481c0 5.627-4.459 10.226-9.911 10.226h-58.48z"/></svg>
