<svg xmlns="http://www.w3.org/2000/svg" width="1590" height="170.75"><g fill="#FFF"><path d="M114.345 116.828c0 31.691-23.648 53.923-56.285 53.923S5.085 146.863 1.773 118.483c-2.364-19.863-2.364-46.352 0-66.216C5.085 23.887 25.423 0 58.061 0c32.636 0 56.285 22.468 56.285 53.922v.236c0 2.363-2.128 4.729-4.729 4.729H85.966a4.743 4.743 0 0 1-4.729-4.729v-.236c0-9.698-8.278-20.576-23.176-20.576-14.426 0-21.759 8.513-22.942 18.919-2.364 19.865-2.364 46.353 0 66.216 1.183 10.408 8.516 18.921 22.942 18.921 13.953 0 23.176-10.169 23.176-20.339v-.237c0-2.6 2.128-4.965 4.729-4.965h23.649a4.743 4.743 0 0 1 4.729 4.728v.239zM229.522 2.601h23.65c2.601 0 4.729 2.13 4.729 4.732v156.085a4.743 4.743 0 0 1-4.729 4.73h-23.65a4.742 4.742 0 0 1-4.729-4.73v-59.124c0-1.419-.947-2.365-2.364-2.365H186.48c-1.419 0-2.364.946-2.364 2.365v59.124c0 2.602-3.311 4.73-5.913 4.73h-22.468a4.743 4.743 0 0 1-4.728-4.73V7.333c0-2.602 2.128-4.732 4.728-4.732h23.651c2.601 0 4.73 2.13 4.73 4.732v59.123c0 1.42.945 2.365 2.364 2.365h35.949c1.417 0 2.364-.945 2.364-2.365V7.333a4.743 4.743 0 0 1 4.729-4.732zM369.768 140.242c-.473-1.892-1.419-3.548-3.548-3.548h-35.947c-2.129 0-3.075 1.419-3.548 3.548l-6.622 24.359c-.474 2.127-2.365 3.547-4.494 3.547h-24.833c-3.783 0-5.202-2.602-4.729-4.73L328.38 6.149c.473-2.129 2.365-3.548 4.494-3.548h31.69c2.127 0 4.02 1.419 4.493 3.548l42.096 157.269c.472 2.128-.947 4.73-4.73 4.73H381.59c-2.127 0-3.783-1.419-4.493-3.547l-7.329-24.359zm-8.514-39.26L349.9 44.224c-.236-.709-.471-.945-1.18-.945h-.473c-.71 0-.946.236-1.183.945l-11.352 56.758c-.473 1.893.473 2.602 1.892 2.602h21.757c1.42 0 2.366-.709 1.893-2.602zM474.774 101.929c-1.419 0-2.365.946-2.365 2.365v59.124a4.743 4.743 0 0 1-4.73 4.73h-23.65a4.743 4.743 0 0 1-4.729-4.73V7.333c0-2.602 2.128-4.732 4.729-4.732h52.03c27.198 0 49.665 22.467 49.665 49.665 0 18.208-7.805 30.508-24.597 41.859-3.311 2.365-3.072 4.257-1.419 7.804l25.306 59.124c1.656 3.548.237 7.095-4.494 7.095h-24.359c-3.784 0-5.675-1.892-6.857-4.73l-24.123-58.415c-.474-1.182-1.656-3.074-4.258-3.074h-6.149zm0-66.217c-1.419 0-2.365.945-2.365 2.364v28.379c0 1.42.946 2.365 2.365 2.365h21.285c8.987 0 16.555-7.333 16.555-16.555 0-8.987-7.568-16.554-16.555-16.554h-21.285zM693.303 116.828c0 31.691-23.649 53.923-56.287 53.923-32.635 0-52.974-23.888-56.286-52.268-2.364-19.863-2.364-46.352 0-66.216C584.042 23.887 604.381 0 637.016 0c32.637 0 56.287 22.468 56.287 53.922v.236c0 2.363-2.129 4.729-4.73 4.729h-23.648a4.742 4.742 0 0 1-4.73-4.729v-.236c0-9.698-8.277-20.576-23.177-20.576-14.425 0-21.757 8.513-22.939 18.919-2.365 19.865-2.365 46.353 0 66.216 1.183 10.408 8.514 18.921 22.939 18.921 13.953 0 23.177-10.169 23.177-20.339v-.237c0-2.6 2.127-4.965 4.73-4.965h23.648c2.602 0 4.73 2.129 4.73 4.728v.239zM839.46 118.482c0 28.616-23.65 52.268-56.285 52.268-32.164 0-55.814-23.652-55.814-52.268V7.333a4.746 4.746 0 0 1 4.731-4.732h23.887c2.601 0 4.729 2.13 4.729 4.732v111.149c0 10.408 8.514 18.921 22.468 18.921 14.425 0 22.94-8.513 22.94-18.921V7.333c0-2.602 2.128-4.732 4.73-4.732h23.884c2.602 0 4.73 2.13 4.73 4.732v111.149zM934.299 38.077v125.341a4.745 4.745 0 0 1-4.73 4.73H905.92a4.742 4.742 0 0 1-4.729-4.73V38.077c0-1.419-.946-2.364-2.365-2.364h-29.562a4.745 4.745 0 0 1-4.731-4.732V7.333a4.746 4.746 0 0 1 4.731-4.732h96.961a4.747 4.747 0 0 1 4.732 4.732V30.98a4.747 4.747 0 0 1-4.732 4.732h-29.562c-1.42 0-2.364.945-2.364 2.365zM1031.503 132.674c0 1.419.945 2.364 2.365 2.364h56.047a4.744 4.744 0 0 1 4.731 4.73v23.649a4.744 4.744 0 0 1-4.731 4.73h-86.792a4.743 4.743 0 0 1-4.73-4.73V7.333c0-2.602 2.128-4.732 4.73-4.732h85.847c2.603 0 4.729 2.13 4.729 4.732V30.98c0 2.603-2.127 4.732-4.729 4.732h-55.102c-1.42 0-2.365.945-2.365 2.364v28.379c0 1.42.945 2.365 2.365 2.365h53.209a4.742 4.742 0 0 1 4.73 4.729V97.2a4.743 4.743 0 0 1-4.73 4.729h-53.209c-1.42 0-2.365.946-2.365 2.365v28.38zM1166.783 101.929c-1.42 0-2.366.946-2.366 2.365v59.124a4.743 4.743 0 0 1-4.729 4.73h-23.648a4.742 4.742 0 0 1-4.73-4.73V7.333a4.744 4.744 0 0 1 4.73-4.732h52.027c27.196 0 49.663 22.467 49.663 49.665 0 18.208-7.804 30.508-24.594 41.859-3.312 2.365-3.077 4.257-1.42 7.804l25.305 59.124c1.656 3.548.236 7.095-4.494 7.095h-24.357c-3.786 0-5.678-1.892-6.858-4.73l-24.123-58.415c-.474-1.182-1.656-3.074-4.257-3.074h-6.149zm0-66.217c-1.42 0-2.366.945-2.366 2.364v28.379c0 1.42.946 2.365 2.366 2.365h21.284c8.987 0 16.554-7.333 16.554-16.555 0-8.987-7.566-16.554-16.554-16.554h-21.284zM1308.685 163.418a4.744 4.744 0 0 1-4.729 4.73h-23.648a4.743 4.743 0 0 1-4.73-4.73V7.333c0-2.602 2.129-4.732 4.73-4.732h23.648c2.601 0 4.729 2.13 4.729 4.732v156.085zM1384.366 132.674c0 1.419.946 2.364 2.365 2.364h56.048c2.602 0 4.732 2.129 4.732 4.73v23.649c0 2.602-2.131 4.73-4.732 4.73h-86.793a4.742 4.742 0 0 1-4.729-4.73V7.333c0-2.602 2.128-4.732 4.729-4.732h85.848c2.601 0 4.729 2.13 4.729 4.732V30.98c0 2.603-2.129 4.732-4.729 4.732h-55.103c-1.419 0-2.365.945-2.365 2.364v28.379c0 1.42.946 2.365 2.365 2.365h53.211a4.74 4.74 0 0 1 4.728 4.729V97.2a4.741 4.741 0 0 1-4.728 4.729h-53.211c-1.419 0-2.365.946-2.365 2.365v28.38zM1530.758 100.037c-29.56-6.621-52.974-19.628-52.974-50.136 0-27.906 22.94-49.9 54.157-49.9 31.69 0 54.393 21.995 54.393 49.9v3.549c0 2.6-2.127 4.728-4.727 4.728h-23.887c-2.603 0-4.731-2.128-4.731-4.728V49.9c0-9.461-7.567-17.737-21.048-17.737-13.243 0-20.575 7.095-20.575 16.555 0 8.986 8.752 14.662 21.05 17.028 32.873 6.621 57.23 20.337 57.23 53.21 0 30.745-24.121 51.794-57.705 51.794-32.637 0-56.284-22.941-56.284-51.794v-7.094a4.742 4.742 0 0 1 4.728-4.73h23.89c2.597 0 4.727 2.128 4.727 4.73v7.094c0 10.881 8.279 19.393 22.94 19.393 14.191 0 23.413-8.276 23.413-19.393-.001-10.168-6.858-14.898-24.597-18.919z"/></g></svg>
