<svg xmlns="http://www.w3.org/2000/svg" width="1590" height="246.717"><g fill="#FFF"><path d="M79.631 144.568C36.911 134.999 3.076 116.2 3.076 72.111 3.076 31.784 36.228 0 81.34 0c45.796 0 78.605 31.784 78.605 72.112v5.129c0 3.757-3.076 6.833-6.836 6.833h-34.518c-3.76 0-6.835-3.077-6.835-6.833v-5.129c0-13.667-10.936-25.631-30.416-25.631-19.14 0-29.734 10.252-29.734 23.923 0 12.987 12.646 21.19 30.417 24.607 47.505 9.569 82.707 29.393 82.707 76.896 0 44.431-34.86 74.846-83.39 74.846-47.163 0-81.34-33.15-81.34-74.846v-10.25c0-3.762 3.076-6.838 6.836-6.838h34.518c3.76 0 6.836 3.077 6.836 6.838v10.25c0 15.72 11.961 28.025 33.151 28.025 20.505 0 33.834-11.961 33.834-28.025 0-14.695-9.911-21.531-35.544-27.339zM297.324 202.667c-.682-2.735-2.049-5.125-5.126-5.125H240.25c-3.076 0-4.442 2.049-5.126 5.125l-9.568 35.202c-.685 3.075-3.418 5.127-6.494 5.127h-35.886c-5.468 0-7.519-3.762-6.834-6.838L237.517 8.887c.684-3.076 3.418-5.125 6.493-5.125h45.796c3.077 0 5.811 2.049 6.494 5.125l60.833 227.271c.685 3.077-1.366 6.838-6.835 6.838h-35.885c-3.076 0-5.468-2.052-6.494-5.127l-10.595-35.202zm-12.302-56.731L268.618 63.91c-.342-1.024-.685-1.368-1.71-1.368h-.683c-1.025 0-1.367.344-1.709 1.368l-16.405 82.026c-.682 2.73.686 3.757 2.735 3.757h31.442c2.05 0 3.418-1.027 2.734-3.757zM538.941 171.225c0 41.352-34.176 75.528-81.34 75.528-46.479 0-80.657-34.176-80.657-75.528V10.595c0-3.76 3.077-6.833 6.835-6.833h34.519c3.759 0 6.835 3.074 6.835 6.833v160.63c0 15.037 12.303 27.339 32.468 27.339 20.847 0 33.151-12.302 33.151-27.339V10.595c0-3.76 3.075-6.833 6.834-6.833h34.519c3.759 0 6.835 3.074 6.835 6.833v160.63zM738.175 168.831c0 45.797-34.178 77.922-81.34 77.922-47.163 0-76.555-34.518-81.339-75.528-3.417-28.709-3.417-66.986 0-95.695C580.28 34.517 609.673 0 656.835 0s81.34 32.469 81.34 77.923v.341c0 3.419-3.076 6.838-6.833 6.838h-34.178c-3.759 0-6.835-3.076-6.835-6.838v-.341c0-14.013-11.961-29.733-33.493-29.733-20.847 0-31.442 12.304-33.15 27.341-3.417 28.708-3.417 66.986 0 95.695 1.708 15.037 12.303 27.339 33.15 27.339 20.165 0 33.493-14.694 33.493-29.39v-.343c0-3.758 3.076-7.174 6.835-7.174h34.178c3.758 0 6.833 3.076 6.833 6.833v.34zM821.896 236.157c0 3.762-3.076 6.838-6.836 6.838h-34.177c-3.759 0-6.835-3.076-6.835-6.838V10.595c0-3.76 3.076-6.833 6.835-6.833h34.177c3.76 0 6.836 3.074 6.836 6.833v225.562zM933.987 144.568c-42.721-9.569-76.555-28.368-76.555-72.457C857.433 31.784 890.582 0 935.695 0c45.798 0 78.607 31.784 78.607 72.112v5.129c0 3.757-3.077 6.833-6.837 6.833h-34.519c-3.759 0-6.834-3.077-6.834-6.833v-5.129c0-13.667-10.938-25.631-30.418-25.631-19.137 0-29.733 10.252-29.733 23.923 0 12.987 12.646 21.19 30.417 24.607 47.506 9.569 82.708 29.393 82.708 76.896 0 44.431-34.862 74.846-83.392 74.846-47.162 0-81.339-33.15-81.339-74.846v-10.25c0-3.762 3.076-6.838 6.835-6.838h34.519c3.76 0 6.836 3.077 6.836 6.838v10.25c0 15.72 11.96 28.025 33.149 28.025 20.505 0 33.837-11.961 33.837-28.025.001-14.695-9.911-21.531-35.544-27.339zM1119.213 144.568c-42.722-9.569-76.557-28.368-76.557-72.457 0-40.328 33.151-72.112 78.265-72.112 45.798 0 78.606 31.784 78.606 72.112v5.129c0 3.757-3.075 6.833-6.835 6.833h-34.52c-3.76 0-6.835-3.077-6.835-6.833v-5.129c0-13.667-10.936-25.631-30.417-25.631-19.138 0-29.732 10.252-29.732 23.923 0 12.987 12.644 21.19 30.417 24.607 47.505 9.569 82.707 29.393 82.707 76.896 0 44.431-34.86 74.846-83.392 74.846-47.163 0-81.339-33.15-81.339-74.846v-10.25c0-3.762 3.074-6.838 6.834-6.838h34.519c3.759 0 6.836 3.077 6.836 6.838v10.25c0 15.72 11.96 28.025 33.15 28.025 20.505 0 33.836-11.961 33.836-28.025.001-14.694-9.911-21.53-35.543-27.338zM1395.346 75.53c3.419 28.708 3.419 66.986 0 95.695-4.784 41.01-34.175 75.528-81.339 75.528s-76.556-34.518-81.34-75.528c-3.418-28.709-3.418-66.986 0-95.695 4.784-41.013 34.176-75.53 81.34-75.53s76.555 34.517 81.339 75.53zm-48.188 95.695c3.418-28.709 3.418-66.986 0-95.695-1.708-15.037-12.303-27.341-33.151-27.341-20.847 0-31.442 12.304-33.15 27.341-3.417 28.708-3.417 66.986 0 95.695 1.708 15.037 12.304 27.339 33.15 27.339 20.848 0 31.443-12.302 33.151-27.339zM1542.293 242.996c-5.81 0-8.203-3.076-9.228-5.812l-46.479-119.96c-.685-2.049-3.076-1.368-3.076.687v118.247c0 3.762-3.076 6.838-6.836 6.838h-34.177c-3.76 0-6.836-3.076-6.836-6.838V10.595c0-3.76 3.076-6.833 6.836-6.833h40.67c5.127 0 7.52 3.074 8.544 6.15l46.821 129.871c.684 2.049 3.076 1.365 3.076-.686V10.595c0-3.76 3.076-6.833 6.837-6.833h34.177c3.758 0 6.833 3.074 6.833 6.833v225.562c0 3.762-3.075 6.838-6.833 6.838h-40.329z"/></g></svg>
