<svg xmlns="http://www.w3.org/2000/svg" width="1590" height="400.793"><g fill="#FFF"><path d="M254.33 119.383c0 24.433-12.216 53.862-28.32 69.965-3.33 3.332-3.33 7.218 0 9.994 18.325 15.548 32.762 47.197 32.762 75.517 0 72.741-45.532 119.94-113.831 119.94H13.896c-6.107 0-11.105-4.998-11.105-11.107V17.214c0-6.108 4.998-11.106 11.105-11.106H144.94c62.191 0 109.39 50.531 109.39 113.275zm-112.166 36.094c19.435 0 36.648-16.659 36.648-36.093 0-19.434-17.213-35.538-36.648-35.538H84.417c-3.333 0-5.553 2.222-5.553 5.553v60.525c0 3.332 2.221 5.553 5.553 5.553h57.747zm-57.747 77.737c-3.333 0-5.553 2.222-5.553 5.554v72.741c0 3.332 2.221 5.552 5.553 5.552h57.747c23.877 0 38.87-19.992 38.87-42.202 0-21.656-15.547-41.645-38.87-41.645H84.417zM499.199 329.277c-1.111-4.442-3.332-8.33-8.33-8.33h-84.4c-4.999 0-7.219 3.331-8.33 8.33l-15.548 57.192c-1.111 4.998-5.552 8.33-10.55 8.33h-58.303c-8.884 0-12.216-6.109-11.105-11.107l99.393-369.254c1.111-4.998 5.552-8.329 10.55-8.329h74.406c4.998 0 9.439 3.332 10.55 8.329l98.838 369.254c1.11 4.998-2.22 11.107-11.105 11.107h-58.303c-4.998 0-8.885-3.332-10.551-8.33l-17.212-57.192zm-19.989-92.175l-26.654-133.266c-.555-1.666-1.111-2.221-2.775-2.221h-1.111c-1.666 0-2.222.555-2.776 2.221L419.24 237.102c-1.11 4.44 1.111 6.106 4.441 6.106h51.085c3.334 0 5.554-1.666 4.444-6.106zM902.872 274.304c0 74.407-55.526 126.601-132.154 126.601-76.628 0-124.381-56.081-132.155-122.713-5.553-46.643-5.553-108.833 0-155.477C646.337 56.083 694.09 0 770.718 0c76.627 0 132.154 52.75 132.154 126.602v.555c0 5.553-4.998 11.105-11.105 11.105H836.24c-6.108 0-11.106-4.997-11.106-11.105v-.555c0-22.766-19.434-48.308-54.416-48.308-33.872 0-51.085 19.99-53.862 44.421-5.552 46.643-5.552 108.833 0 155.477 2.776 24.432 19.99 44.42 53.862 44.42 32.76 0 54.416-23.876 54.416-47.752v-.556c0-6.106 4.998-11.66 11.106-11.66h55.526c6.107 0 11.105 4.998 11.105 11.105v.555zM1246.574 122.715c5.554 46.643 5.554 108.833 0 155.477-7.772 66.632-55.525 122.713-132.154 122.713-76.627 0-124.38-56.081-132.153-122.713-5.552-46.643-5.552-108.833 0-155.477C990.04 56.083 1037.793 0 1114.42 0c76.629 0 124.382 56.083 132.154 122.715zm-78.292 155.476c5.553-46.643 5.553-108.833 0-155.477-2.776-24.431-19.991-44.421-53.862-44.421s-51.085 19.99-53.861 44.421c-5.551 46.643-5.551 108.833 0 155.477 2.776 24.432 19.99 44.42 53.861 44.42s51.086-19.987 53.862-44.42zM1513.096 394.799c-9.439 0-13.328-4.998-14.993-9.441l-75.518-194.899c-1.109-3.332-4.997-2.221-4.997 1.11v192.123c0 6.109-4.996 11.107-11.103 11.107h-55.53c-6.108 0-11.104-4.998-11.104-11.107V17.214c0-6.108 4.995-11.106 11.104-11.106h66.08c8.327 0 12.214 4.998 13.881 9.995l76.069 211.002c1.111 3.332 4.999 2.221 4.999-1.111V17.214c0-6.108 4.997-11.106 11.104-11.106h55.527c6.109 0 11.106 4.998 11.106 11.106v366.478c0 6.109-4.997 11.107-11.106 11.107h-65.519z"/></g></svg>
