<svg xmlns="http://www.w3.org/2000/svg" width="1590" height="546.771"><g fill="#FFF"><path d="M142.481 124.67c68.273 0 124.671 56.401 124.671 124.671 0 68.867-56.398 124.671-124.671 124.671h-53.43c-3.563 0-5.937 2.376-5.937 5.937v148.42c0 6.531-5.343 11.873-11.874 11.873H11.874C5.343 540.242 0 534.9 0 528.369V136.543c0-6.529 5.343-11.873 11.874-11.873h130.607zm-53.43 83.117c-3.563 0-5.937 2.372-5.937 5.936v71.24c0 3.56 2.374 5.937 5.937 5.937h53.43c22.56 0 41.558-18.406 41.558-41.559 0-22.559-18.998-41.554-41.558-41.554h-53.43zM496.9 470.188c-1.188-4.75-3.562-8.907-8.905-8.907h-90.238c-5.343 0-7.718 3.564-8.906 8.907l-16.623 61.147c-1.188 5.343-5.937 8.906-11.28 8.906h-62.335c-9.499 0-13.061-6.53-11.874-11.873l106.268-394.792c1.188-5.343 5.936-8.907 11.279-8.907h79.552c5.344 0 10.092 3.563 11.28 8.907l105.673 394.792c1.187 5.343-2.375 11.873-11.874 11.873h-62.334c-5.343 0-9.5-3.563-11.281-8.906L496.9 470.188zm-73.021-384.7c-2.968 4.157-9.499 9.5-18.404 9.5h-56.398c-10.094 0-10.094-11.28-6.531-14.843l70.646-73.02C416.755 3.561 420.316 0 431.003 0h36.807c10.094 0 13.655 3.561 17.217 7.125l70.646 73.02c3.563 3.563 2.968 14.843-7.717 14.843h-55.805c-8.904 0-15.435-5.343-18.403-9.5l-20.78-26.121c-2.374-3.561-5.936-3.561-8.311 0l-20.778 26.121zm51.649 286.151l-28.496-142.484c-.595-1.78-1.188-2.373-2.968-2.373h-1.187c-1.783 0-2.375.593-2.969 2.373l-28.497 142.484c-1.187 4.749 1.188 6.529 4.75 6.529h54.617c3.562 0 5.938-1.78 4.75-6.529zM799.666 213.723v314.646c0 6.531-5.344 11.873-11.875 11.873h-59.367c-6.53 0-11.874-5.342-11.874-11.873V213.723c0-3.564-2.374-5.936-5.937-5.936h-74.208c-6.531 0-11.874-5.343-11.874-11.876v-59.368c0-6.529 5.343-11.873 11.874-11.873h243.404c6.531 0 11.874 5.343 11.874 11.873v59.368c0 6.533-5.343 11.876-11.874 11.876h-74.208c-3.561 0-5.935 2.372-5.935 5.936zM1058.504 451.189c0 3.563 2.375 5.936 5.936 5.936h140.701c6.528 0 11.873 5.343 11.873 11.876v59.368c0 6.531-5.345 11.873-11.873 11.873H987.263c-6.53 0-11.874-5.342-11.874-11.873V136.543c0-6.529 5.344-11.873 11.874-11.873h215.503c6.529 0 11.873 5.343 11.873 11.873v59.368c0 6.533-5.344 11.876-11.873 11.876H1064.44c-3.561 0-5.936 2.372-5.936 5.936v71.24c0 3.56 2.375 5.937 5.936 5.937h133.575c6.532 0 11.875 5.343 11.875 11.872v59.368c0 6.528-5.343 11.872-11.875 11.872H1064.44c-3.561 0-5.936 2.376-5.936 5.937v71.24zM1186.735 0c11.279 0 13.655 8.904 7.125 16.03l-68.271 71.833c-3.563 3.562-7.125 7.125-17.812 7.125h-40.963c-7.719 0-14.843-8.312-7.719-17.811l48.682-67.679c2.969-4.155 6.53-9.498 15.437-9.498h63.521zM1441.419 369.262c-74.209-16.622-132.981-49.274-132.981-125.857 0-70.054 57.585-125.265 135.949-125.265 79.552 0 136.545 55.211 136.545 125.265v8.907c0 6.529-5.343 11.872-11.873 11.872h-59.962c-6.531 0-11.873-5.343-11.873-11.872v-8.907c0-23.746-18.997-44.524-52.837-44.524-33.247 0-51.649 17.809-51.649 41.558 0 22.559 21.967 36.805 52.837 42.741 82.52 16.623 143.668 51.058 143.668 133.578 0 77.176-60.555 130.014-144.855 130.014-81.928 0-141.293-57.586-141.293-130.014v-17.81c0-6.528 5.344-11.872 11.872-11.872h59.962c6.529 0 11.871 5.344 11.871 11.872v17.81c0 27.309 20.779 48.681 57.588 48.681 35.621 0 58.772-20.779 58.772-48.681-.001-25.53-17.217-37.403-61.741-47.496z"/></g></svg>
