<svg xmlns="http://www.w3.org/2000/svg" width="1590" height="285.836"><g fill="#FFF"><path d="M146.936 241.2l16.066 31.78c2.5 5 2.144 12.856-8.569 12.856h-32.849c-6.071 0-7.856-3.574-10.712-8.571l-8.215-16.068c-1.426-2.5-2.497-3.57-6.425-3.57h-8.569c-49.279 0-79.985-36.064-84.985-78.913-3.569-29.994-3.569-69.986 0-99.979 5-42.849 35.706-78.914 84.985-78.914 49.274 0 79.982 36.065 84.98 78.914 3.571 29.993 3.571 69.985 0 99.979-2.498 20.709-11.782 42.133-24.281 54.632-2.141 2.142-3.213 4.283-1.426 7.854zm-24.64-62.486c3.569-29.994 3.569-69.986 0-99.979-1.785-15.712-12.855-28.567-34.634-28.567-21.783 0-32.852 12.855-34.639 28.567-3.569 29.993-3.569 69.985 0 99.979 1.787 15.711 12.855 28.564 34.639 28.564 21.779.001 32.85-12.852 34.634-28.564zM397.948 178.714c0 43.205-35.708 78.913-84.984 78.913-48.561 0-84.267-35.708-84.267-78.913V10.891c0-3.928 3.212-7.141 7.141-7.141h36.064c3.928 0 7.141 3.213 7.141 7.141v167.824c0 15.711 12.856 28.564 33.921 28.564 21.783 0 34.638-12.853 34.638-28.564V10.891c0-3.928 3.211-7.141 7.139-7.141h36.065c3.928 0 7.143 3.213 7.143 7.141v167.823zM508.274 200.138c0 2.143 1.428 3.569 3.572 3.569h84.625c3.928 0 7.141 3.215 7.141 7.143v35.706c0 3.928-3.213 7.143-7.141 7.143H465.426c-3.928 0-7.141-3.215-7.141-7.143V10.891c0-3.928 3.213-7.141 7.141-7.141h129.616c3.928 0 7.143 3.213 7.143 7.141v35.708c0 3.928-3.215 7.139-7.143 7.139h-83.195c-2.144 0-3.572 1.43-3.572 3.574v42.849c0 2.141 1.428 3.569 3.572 3.569h80.339c3.928 0 7.143 3.215 7.143 7.143v35.706c0 3.928-3.215 7.141-7.143 7.141h-80.339c-2.144 0-3.572 1.428-3.572 3.571v42.847zM770.001 253.699c-6.069 0-8.569-3.215-9.641-6.071L711.8 122.297c-.713-2.143-3.213-1.431-3.213.713v123.547c0 3.928-3.213 7.143-7.141 7.143h-35.708c-3.928 0-7.141-3.215-7.141-7.143V10.891c0-3.928 3.213-7.141 7.141-7.141h42.492c5.354 0 7.855 3.213 8.927 6.426l48.916 135.689c.716 2.141 3.215 1.426 3.215-.718V10.891c0-3.928 3.215-7.141 7.143-7.141h35.706c3.929 0 7.142 3.213 7.142 7.141v235.666c0 3.928-3.213 7.143-7.142 7.143h-42.136zM933.532 200.138c0 2.143 1.43 3.569 3.571 3.569h84.626c3.928 0 7.141 3.215 7.141 7.143v35.706c0 3.928-3.213 7.143-7.141 7.143H890.686c-3.928 0-7.143-3.215-7.143-7.143V10.891c0-3.928 3.215-7.141 7.143-7.141h129.615c3.928 0 7.142 3.213 7.142 7.141v35.708c0 3.928-3.214 7.139-7.142 7.139h-83.197c-2.142 0-3.571 1.43-3.571 3.574v42.849c0 2.141 1.43 3.569 3.571 3.569h80.342c3.928 0 7.14 3.215 7.14 7.143v35.706c0 3.928-3.212 7.141-7.14 7.141h-80.342c-2.142 0-3.571 1.428-3.571 3.571v42.847zM1133.845 200.138c0 2.143 1.43 3.569 3.571 3.569h74.985c3.928 0 7.141 3.215 7.141 7.143v35.706c0 3.928-3.213 7.143-7.141 7.143h-121.403c-3.928 0-7.144-3.215-7.144-7.143V10.891c0-3.928 3.216-7.141 7.144-7.141h35.706c3.928 0 7.141 3.213 7.141 7.141v189.247zM1314.158 200.138c0 2.143 1.43 3.569 3.572 3.569h74.985c3.928 0 7.14 3.215 7.14 7.143v35.706c0 3.928-3.212 7.143-7.14 7.143h-121.404c-3.928 0-7.143-3.215-7.143-7.143V10.891c0-3.928 3.215-7.141 7.143-7.141h35.707c3.928 0 7.14 3.213 7.14 7.141v189.247zM1494.473 200.138c0 2.143 1.43 3.569 3.571 3.569h84.626c3.928 0 7.141 3.215 7.141 7.143v35.706c0 3.928-3.213 7.143-7.141 7.143h-131.044c-3.928 0-7.143-3.215-7.143-7.143V10.891c0-3.928 3.215-7.141 7.143-7.141h129.615c3.929 0 7.142 3.213 7.142 7.141v35.708c0 3.928-3.213 7.139-7.142 7.139h-83.197c-2.142 0-3.571 1.43-3.571 3.574v42.849c0 2.141 1.43 3.569 3.571 3.569h80.341c3.929 0 7.142 3.215 7.142 7.143v35.706c0 3.928-3.213 7.141-7.142 7.141h-80.341c-2.142 0-3.571 1.428-3.571 3.571v42.847z"/></g></svg>
