<svg xmlns="http://www.w3.org/2000/svg" viewBox="0 0 731.87 115.42">
  <title>saucisses</title>
  <g>
    <path d="M37.25,67.62c-20-4.47-35.81-13.27-35.81-33.89C1.44,14.87,17,0,38.05,0,59.47,0,74.82,14.87,74.82,33.73v2.4a3.21,3.21,0,0,1-3.2,3.2H55.47a3.2,3.2,0,0,1-3.19-3.2v-2.4c0-6.39-5.12-12-14.23-12-8.95,0-13.91,4.8-13.91,11.19,0,6.08,5.91,9.91,14.23,11.51,22.22,4.48,38.69,13.75,38.69,36,0,20.79-16.31,35-39,35-22.06,0-38-15.5-38-35V75.62a3.21,3.21,0,0,1,3.2-3.2H19.34a3.21,3.21,0,0,1,3.2,3.2v4.79c0,7.36,5.6,13.11,15.51,13.11,9.59,0,15.83-5.59,15.83-13.11C53.88,73.54,49.24,70.34,37.25,67.62Z" fill="#fff"/>
    <path d="M139.08,94.8c-.32-1.28-1-2.4-2.39-2.4h-24.3c-1.44,0-2.08,1-2.4,2.4l-4.48,16.47a3.08,3.08,0,0,1-3,2.4H85.69c-2.56,0-3.52-1.76-3.2-3.2L111.11,4.16a3.08,3.08,0,0,1,3-2.4h21.43a3.07,3.07,0,0,1,3,2.4l28.46,106.31c.32,1.44-.64,3.2-3.2,3.2H147.08a3.22,3.22,0,0,1-3-2.4Zm-5.75-26.54L125.66,29.9c-.16-.48-.33-.64-.8-.64h-.32c-.48,0-.64.16-.8.64l-7.68,38.36c-.32,1.28.32,1.76,1.28,1.76h14.71C133,70,133.65,69.54,133.33,68.26Z" fill="#fff"/>
    <path d="M252.11,80.09c0,19.35-16,35.33-38.05,35.33-21.74,0-37.73-16-37.73-35.33V5a3.21,3.21,0,0,1,3.2-3.2h16.15A3.21,3.21,0,0,1,198.87,5V80.09c0,7,5.76,12.79,15.19,12.79,9.75,0,15.51-5.75,15.51-12.79V5a3.21,3.21,0,0,1,3.19-3.2h16.15a3.21,3.21,0,0,1,3.2,3.2Z" fill="#fff"/>
    <path d="M345.31,79c0,21.43-16,36.45-38.05,36.45s-35.81-16.14-38.05-35.33a209.29,209.29,0,0,1,0-44.76C271.45,16.15,285.2,0,307.26,0s38.05,15.19,38.05,36.45v.16a3.32,3.32,0,0,1-3.2,3.2h-16a3.21,3.21,0,0,1-3.2-3.2v-.16c0-6.55-5.6-13.91-15.67-13.91-9.75,0-14.71,5.76-15.51,12.79a210.6,210.6,0,0,0,0,44.76c.8,7,5.76,12.79,15.51,12.79,9.43,0,15.67-6.87,15.67-13.75V79a3.34,3.34,0,0,1,3.2-3.35h16a3.21,3.21,0,0,1,3.2,3.19Z" fill="#fff"/>
    <path d="M384.48,110.47a3.21,3.21,0,0,1-3.2,3.2h-16a3.2,3.2,0,0,1-3.19-3.2V5a3.2,3.2,0,0,1,3.19-3.2h16a3.21,3.21,0,0,1,3.2,3.2Z" fill="#fff"/>
    <path d="M436.91,67.62c-20-4.47-35.81-13.27-35.81-33.89C401.1,14.87,416.61,0,437.71,0c21.42,0,36.77,14.87,36.77,33.73v2.4a3.21,3.21,0,0,1-3.2,3.2H455.14a3.21,3.21,0,0,1-3.2-3.2v-2.4c0-6.39-5.12-12-14.23-12-8.95,0-13.91,4.8-13.91,11.19,0,6.08,5.92,9.91,14.23,11.51,22.22,4.48,38.69,13.75,38.69,36,0,20.79-16.31,35-39,35-22.06,0-38-15.5-38-35V75.62a3.21,3.21,0,0,1,3.2-3.2H419a3.21,3.21,0,0,1,3.19,3.2v4.79c0,7.36,5.6,13.11,15.51,13.11,9.59,0,15.83-5.59,15.83-13.11C453.54,73.54,448.9,70.34,436.91,67.62Z" fill="#fff"/>
    <path d="M523.56,67.62c-20-4.47-35.81-13.27-35.81-33.89C487.75,14.87,503.26,0,524.36,0c21.42,0,36.77,14.87,36.77,33.73v2.4a3.21,3.21,0,0,1-3.2,3.2H541.78a3.2,3.2,0,0,1-3.19-3.2v-2.4c0-6.39-5.12-12-14.23-12-9,0-13.91,4.8-13.91,11.19,0,6.08,5.91,9.91,14.23,11.51,22.22,4.48,38.69,13.75,38.69,36,0,20.79-16.31,35-39,35-22.06,0-38.05-15.5-38.05-35V75.62a3.21,3.21,0,0,1,3.2-3.2h16.14a3.21,3.21,0,0,1,3.2,3.2v4.79c0,7.36,5.6,13.11,15.51,13.11,9.59,0,15.82-5.59,15.82-13.11C540.18,73.54,535.55,70.34,523.56,67.62Z" fill="#fff"/>
    <path d="M600.93,89.68a1.51,1.51,0,0,0,1.6,1.6h37.89a3.21,3.21,0,0,1,3.2,3.2v16a3.21,3.21,0,0,1-3.2,3.2H581.75a3.21,3.21,0,0,1-3.2-3.2V5a3.21,3.21,0,0,1,3.2-3.2h58A3.21,3.21,0,0,1,643,5v16a3.21,3.21,0,0,1-3.2,3.2H602.53a1.51,1.51,0,0,0-1.6,1.6V44.92a1.51,1.51,0,0,0,1.6,1.6h36a3.21,3.21,0,0,1,3.2,3.2v16a3.21,3.21,0,0,1-3.2,3.19h-36a1.51,1.51,0,0,0-1.6,1.6Z" fill="#fff"/>
    <path d="M692.06,67.62c-20-4.47-35.81-13.27-35.81-33.89C656.25,14.87,671.76,0,692.86,0c21.42,0,36.77,14.87,36.77,33.73v2.4a3.21,3.21,0,0,1-3.2,3.2H710.28a3.2,3.2,0,0,1-3.19-3.2v-2.4c0-6.39-5.12-12-14.23-12-9,0-13.91,4.8-13.91,11.19,0,6.08,5.91,9.91,14.23,11.51,22.22,4.48,38.69,13.75,38.69,36,0,20.79-16.31,35-39,35-22.06,0-38.05-15.5-38.05-35V75.62a3.21,3.21,0,0,1,3.2-3.2h16.14a3.21,3.21,0,0,1,3.2,3.2v4.79c0,7.36,5.6,13.11,15.51,13.11,9.59,0,15.82-5.59,15.82-13.11C708.68,73.54,704.05,70.34,692.06,67.62Z" fill="#fff"/>
  </g>
</svg>
