<svg xmlns="http://www.w3.org/2000/svg" viewBox="0 0 381.97 224.44">
  <title>vector-boudon</title>
  <path d="M8.72,101.91a2.55,2.55,0,0,0-1.51,1l-.13.18a1.11,1.11,0,0,0-1.06.46l-.67-.4s0,0,0,0c.22-.44.43-.89.62-1.35a.81.81,0,0,0,0-.76A1,1,0,0,0,4,100.5c-.1.17-.21.34-.33.52a1,1,0,0,0-1.65.73,1.18,1.18,0,0,0-.78.41C0,103.7-.08,106,0,108a2.61,2.61,0,0,0,.07,1,8.34,8.34,0,0,0,2.49,5.6l.07,0a6.15,6.15,0,0,0,1.55,2,.93.93,0,0,0,1.41-.43,1.14,1.14,0,0,0,.61-.88c.2-1.94,1.81-3.69,3-5.29a2.41,2.41,0,0,0,1.08.62C8.61,123.22,13,130.39,33.42,140.3,66.43,156,70.13,115,147.16,98.49c51.33-11,60.46-12.59,106.47,12.93,13.8,6.94,37.74,33.24,42.17,50.65,6,21.12,15.48,41.76,34.08,50.28a24.29,24.29,0,0,0,16.68,1.42l.18-.07-.18.07c-.67.26-1.32.54-1.93.83-1,.47-.4,2.21.68,1.86a4.13,4.13,0,0,1,3.34.66,1.09,1.09,0,0,0,.57,1.22c-2.07,1.52-4.44,2.58-6.34,4.35-.58.55-.28,1.81.63,1.75,3.63-.27,6.52-2.1,9.46-4.1a21.06,21.06,0,0,1,5-2.84c1.59-.53,3.15-.86,4.41-2.05a1,1,0,0,0-.88-1.71,10.09,10.09,0,0,0-3.41,1.18,1,1,0,0,0-.59-.49,8.61,8.61,0,0,0-1.1-.23,2.38,2.38,0,0,0-1.87-1.89c-.19.1-.37.2-.54.31h-.11a11.06,11.06,0,0,0,1.95-3.31c14.93-10.43,25.42-34.2,26-54,2.24-71-49.59-111.2-99-133.85-75.2-33.53-170.5-29-243.11,22C27,53.1,4.84,80.73,8.72,101.91Z" fill="#5aa1e5"/>
</svg>
